<?xml version="1.0" encoding="UTF-8" standalone="no"?><!DOCTYPE svg PUBLIC "-//W3C//DTD SVG 1.1//EN" "http://www.w3.org/Graphics/SVG/1.1/DTD/svg11.dtd"><svg width="100%" height="100%" viewBox="0 0 1459 967" version="1.1" xmlns="http://www.w3.org/2000/svg" xmlns:xlink="http://www.w3.org/1999/xlink" xml:space="preserve" xmlns:serif="http://www.serif.com/" style="fill-rule:evenodd;clip-rule:evenodd;stroke-linejoin:round;stroke-miterlimit:2;"><g id="icon"><path d="M224.261,952.356l184.451,-319.466c9.871,-17.116 -2.464,-38.495 -22.222,-38.495l-116.23,0c31.914,-260.954 254.746,-463.769 524.178,-463.769c284.829,-0 517.726,226.592 527.905,508.99c0.389,10.698 8.898,19.272 19.596,19.272l88.919,-0c11.038,-0 20.131,-9.093 19.79,-20.115c-10.665,-352.742 -300.94,-636.404 -656.21,-636.404c-340.246,0 -620.812,260.193 -653.31,592.042l-123.507,0c-19.758,0 -32.109,21.395 -22.222,38.495l184.451,319.466c9.838,17.1 34.54,17.1 44.411,-0.016Z" style="fill:#fff;fill-rule:nonzero;"/></g></svg>